<?xml version="1.0"?>
<svg version="1.1" xmlns="http://www.w3.org/2000/svg" width="150px" height="75px" style="border: dashed 2px #aaa"><path fill="#edf3f7" d="M28.6767578125,46.759765625q-0.0107421875-0.322265625-0.0107421875-0.64453125q0-1.009765625,0.107421875-2.0302734375q0.12890625-1.353515625,0.171875-2.6640625q0.04296875-1.5361328125,0.12890625-3.1904296875q0.0537109375-0.90234375,0.0537109375-1.783203125q0-0.7197265625-0.0322265625-1.4287109375q0.107421875-0.2470703125,0.28466796875-0.3330078125t0.44580078125-0.0859375q0.12890625,0,0.27392578125,0.021484375t0.25244140625,0.107421875q0.150390625,0.021484375,0.37060546875,0.04296875t0.33837890625,0.12890625q0.04296875,0.064453125,0.22021484375,0.4404296875t0.4189453125,0.9130859375t0.5048828125,1.16552734375t0.5048828125,1.1923828125t0.4189453125,0.99365234375t0.22021484375,0.537109375q1.009765625-1.826171875,1.9765625-3.75439453125t2.1162109375-3.63623046875q0.107421875-0.150390625,0.37060546875-0.22021484375t0.43505859375-0.06982421875q0.4619140625,0,0.67138671875,0.22021484375t0.27392578125,0.56396484375q0.04296875,0.21484375,0.0537109375,0.4619140625q0.0107421875,0.12890625-0.0107421875,0.2685546875q-0.04296875,0.3974609375-0.04296875,0.751953125q0,2.5029296875-0.171875,4.96826171875t-0.3115234375,4.97900390625q-0.021484375,0.515625-0.021484375,1.07421875t0.021484375,1.16015625q0.0107421875,0.21484375,0.0107421875,0.4189453125q0,0.9453125-0.1611328125,1.76171875q-0.150390625,0.2470703125-0.494140625,0.3115234375t-0.580078125,0.064453125q-0.5048828125,0-0.966796875-0.236328125l-0.1181640625-0.1396484375l-0.04296875-0.171875t-0.021484375-0.171875q0-1.5576171875,0.11279296875-3.13671875t0.25244140625-3.15283203125t0.29541015625-3.14208984375t0.26318359375-3.13671875q-0.6337890625,1.052734375-1.22998046875,2.14306640625t-1.12255859375,2.21826171875q-0.193359375,0.4404296875-0.37060546875,0.9453125t-0.42431640625,0.90234375q-0.12890625,0.193359375-0.43505859375,0.236328125t-0.53173828125,0.04296875q-0.21484375,0-0.44580078125-0.0751953125t-0.31689453125-0.322265625q-0.3974609375-1.2138671875-0.8486328125-2.3740234375t-0.9130859375-2.3525390625q0,0.794921875,0.0322265625,2.05712890625t0.0322265625,2.61572265625t-0.04296875,2.5888671875t-0.2041015625,1.955078125q-0.04296875,0.2685546875-0.34912109375,0.3330078125t-0.53173828125,0.064453125q-0.171875,0-0.32763671875-0.021484375t-0.30615234375-0.0859375z M41.434931640625,42.09765625q0-0.3115234375,0.17724609375-0.408203125t0.44580078125-0.0966796875q0.4404296875,0,0.67138671875,0.16650390625t0.23095703125,0.58544921875q0,0.5048828125,0.0751953125,1.26220703125t0.22021484375,1.4716796875t0.34375,1.22998046875t0.41357421875,0.515625q0.3974609375,0,0.70361328125-0.6123046875t0.537109375-1.50390625t0.3974609375-1.91748046875t0.23095703125-1.83154296875q0.04296875-0.4404296875,0.20947265625-0.63916015625t0.60693359375-0.19873046875q0.5048828125,0,0.73583984375,0.4189453125t0.29541015625,1.03125q0.0537109375,0.5263671875,0.0537109375,1.095703125l0,0.1826171875l0,0.4296875q0,0.408203125,0.0107421875,0.73046875l0.3115234375,6.5849609375l0.04296875,1.095703125q0.021484375,0.150390625,0.0322265625,0.28466796875t0.0107421875,0.28466796875q0,0.6123046875-0.26318359375,0.78955078125t-0.85400390625,0.17724609375q-0.12890625,0-0.32763671875-0.021484375t-0.38671875-0.0859375t-0.322265625-0.17724609375t-0.13427734375-0.28466796875l0.04296875-0.107421875q0.0537109375-0.64453125,0.0537109375-1.353515625l0-0.2255859375q-0.0107421875-0.837890625-0.0537109375-1.697265625t-0.0966796875-1.71875t-0.0537109375-1.654296875q-0.150390625,0.3330078125-0.34912109375,0.6875t-0.4619140625,0.63916015625t-0.59619140625,0.47265625t-0.751953125,0.18798828125q-0.6123046875,0-1.009765625-0.322265625t-0.61767578125-0.837890625t-0.31689453125-1.15478515625t-0.12890625-1.2783203125t-0.04296875-1.21923828125t-0.0859375-0.9775390625z M54.576279296875,33.783203125q0-0.5048828125,0.12353515625-0.73583984375t0.3544921875-0.322265625t0.55859375-0.06982421875t0.76806640625,0.021484375q1.1171875,0,2.255859375,0.34375t2.0517578125,1.00439453125t1.4716796875,1.62744140625t0.55859375,2.2236328125q0,0.837890625-0.24169921875,1.58447265625t-0.68212890625,1.396484375t-1.03125,1.18701171875t-1.2998046875,0.9345703125q0.2900390625,0.2900390625,0.751953125,1.02587890625t0.9130859375,1.568359375t0.80029296875,1.61669921875t0.41357421875,1.181640625l-0.12890625,0.193359375q-0.2900390625,0.171875-0.6982421875,0.1826171875q-0.193359375,0-0.5048828125-0.04833984375t-0.3974609375-0.28466796875q-0.4404296875-1.2353515625-0.96142578125-2.5458984375t-1.28369140625-2.36328125l0-0.021484375q-0.2685546875,0.107421875-0.53173828125,0.20947265625t-0.53173828125,0.18798828125q0.0859375,1.1923828125,0.17724609375,2.34716796875t0.09130859375,2.33642578125q0,0.150390625-0.14501953125,0.24169921875t-0.32763671875,0.14501953125t-0.37060546875,0.0751953125t-0.30615234375,0.021484375q-0.107421875,0-0.30615234375-0.021484375t-0.38134765625-0.0751953125t-0.31689453125-0.15576171875t-0.13427734375-0.27392578125q0-1.1923828125-0.0537109375-2.37939453125t-0.1181640625-2.36865234375q-0.3330078125-0.21484375-0.3330078125-0.55859375q0-0.2685546875,0.2578125-0.365234375q-0.12890625-2.2666015625-0.29541015625-4.5224609375t-0.16650390625-4.5439453125z M56.520615234375,33.4501953125q0.150390625,2.3310546875,0.33837890625,4.6083984375t0.35986328125,4.6083984375q0.751953125-0.21484375,1.40185546875-0.74658203125t1.12255859375-1.19775390625t0.73583984375-1.4501953125t0.26318359375-1.5576171875q0-0.859375-0.34375-1.64892578125t-0.9130859375-1.38037109375q-0.580078125-0.5908203125-1.33203125-0.923828125q-0.666015625-0.2900390625-1.396484375-0.2900390625l-0.193359375,0z M64.94431640625,41.80224609375q-0.02685546875-0.35986328125,0.04296875-0.66064453125t0.279296875-0.48876953125t0.67138671875-0.18798828125q0.107421875,0,0.26318359375,0.02685546875t0.30615234375,0.06982421875t0.25244140625,0.12890625t0.10205078125,0.236328125l0,1.2138671875q0.4189453125-0.4833984375,0.9130859375-0.69287109375t1.1279296875-0.20947265625q0.4833984375,0,0.9560546875,0.22021484375t0.8916015625,0.58544921875t0.72509765625,0.8056640625t0.44580078125,0.880859375q0.0859375-0.3974609375,0.193359375-0.97216796875t0.31689453125-1.10107421875t0.55322265625-0.90234375t0.9130859375-0.3759765625q0.6123046875,0,1.03125,0.4404296875t0.68212890625,1.14404296875t0.3974609375,1.57373046875t0.19873046875,1.71875t0.064453125,1.58447265625l0,1.15478515625q0,0.12890625-0.0966796875,0.20947265625t-0.24169921875,0.12353515625t-0.30078125,0.0537109375t-0.24169921875,0.0107421875q-0.3330078125,0-0.60693359375-0.10205078125t-0.27392578125-0.52099609375l0-0.966796875t-0.021484375-1.25146484375t-0.0751953125-1.3427734375t-0.1396484375-1.21923828125t-0.22021484375-0.880859375t-0.32763671875-0.34375q-0.2685546875,0-0.38671875,0.30078125t-0.19873046875,0.7626953125t-0.12353515625,0.9775390625t-0.1181640625,0.9775390625t-0.24169921875,0.75732421875t-0.45654296875,0.29541015625q-0.3115234375,0-0.5478515625-0.29541015625t-0.46728515625-0.73583984375t-0.4619140625-0.9453125t-0.51025390625-0.9453125q-0.279296875-0.451171875-0.6015625-0.73046875q-0.2900390625-0.2685546875-0.6552734375-0.2578125l-0.0537109375,0q-0.4833984375,0.021484375-0.75732421875,0.34912109375t-0.4189453125,0.80029296875t-0.17724609375,1.01513671875t-0.0322265625,0.95068359375q0,0.38671875,0.064453125,0.90234375q0.04296875,0.34375,0.04296875,0.6552734375q0,0.1611328125-0.0107421875,0.3115234375q-0.0322265625,0.451171875-0.24169921875,0.75732421875t-0.77880859375,0.30615234375q-0.21484375,0-0.537109375-0.04296875t-0.4296875-0.2900390625q-0.2470703125-0.4404296875-0.3759765625-1.11181640625t-0.193359375-1.3857421875t-0.0751953125-1.41796875t-0.0107421875-1.20849609375q0-0.3544921875-0.02685546875-0.71435546875z M78.492041015625,44.93359375q0-0.751953125,0.16650390625-1.7724609375t0.56396484375-1.93359375t1.04736328125-1.55224609375t1.63818359375-0.63916015625q0.923828125,0,1.3857421875,0.53173828125t0.4619140625,1.43408203125q0,0.5908203125-0.22021484375,1.29443359375t-0.62841796875,1.33203125t-0.966796875,1.04736328125t-1.24609375,0.4189453125l-0.279296875-0.021484375q0,0.2900390625,0.0859375,0.77880859375t0.25244140625,0.97216796875t0.4296875,0.8486328125t0.63916015625,0.365234375q0.5478515625,0,1.052734375-0.4404296875t0.9560546875-0.9775390625t0.837890625-0.9775390625t0.708984375-0.4404296875q0.171875,0,0.3544921875,0.0537109375t0.2041015625,0.30078125q0,0.150390625-0.08056640625,0.2470703125t-0.14501953125,0.21484375q-0.3330078125,0.5693359375-0.72509765625,1.0849609375t-0.88623046875,0.9345703125t-1.07958984375,0.66064453125t-1.29443359375,0.24169921875q-0.923828125,0-1.5361328125-0.32763671875t-0.98828125-0.880859375t-0.54248046875-1.2783203125t-0.16650390625-1.52001953125z M80.414892578125,44.1171875l0.30078125,0.2685546875q0.21484375,0.193359375,0.4296875,0.0859375t0.38671875-0.39208984375t0.31689453125-0.70361328125t0.2578125-0.859375t0.16650390625-0.859375t0.0537109375-0.6982421875l0-0.365234375t-0.0322265625-0.38671875t-0.11279296875-0.30615234375t-0.25244140625-0.15576171875q-0.0537109375-0.0107421875-0.0966796875-0.0107421875q-0.365234375,0-0.623046875,0.4619140625q-0.279296875,0.515625-0.451171875,1.25146484375t-0.2470703125,1.50927734375t-0.0966796875,1.16015625z M91.654873046875,46.458984375q0-0.3759765625,0.2578125-0.47802734375t0.55859375-0.10205078125q0.5263671875,0,0.8916015625,0.47265625t0.69287109375,1.03662109375t0.64990234375,1.03662109375t0.7626953125,0.47265625q0.3330078125,0,0.60693359375-0.16650390625t0.47265625-0.4189453125t0.30615234375-0.5693359375t0.107421875-0.62841796875q0-0.81640625-0.32763671875-1.6865234375t-0.837890625-1.7939453125t-1.07958984375-1.890625t-1.07421875-1.9658203125t-0.837890625-2.03564453125t-0.3330078125-2.08935546875q0-1.5791015625,0.9453125-2.44921875t2.4921875-0.8701171875q0.5263671875,0,1.0634765625,0.150390625t0.98828125,0.451171875t0.73583984375,0.7412109375t0.28466796875,1.03125q0,0.193359375-0.28466796875,0.25244140625t-0.41357421875,0.05908203125q-0.193359375,0-0.4189453125-0.04833984375t-0.2900390625-0.26318359375t-0.1826171875-0.494140625t-0.29541015625-0.52099609375t-0.4189453125-0.4189453125t-0.53173828125-0.17724609375q-0.4833984375,0-0.82177734375,0.19873046875t-0.5478515625,0.53173828125t-0.3115234375,0.74658203125t-0.10205078125,0.85400390625q0,1.03125,0.3544921875,2.07861328125t0.880859375,2.083984375t1.14404296875,2.04638671875t1.14404296875,1.9658203125t0.880859375,1.869140625t0.3544921875,1.7294921875q0,0.73046875-0.34375,1.2353515625t-0.8701171875,0.82177734375t-1.16552734375,0.4619140625t-1.25146484375,0.14501953125q-0.6552734375,0-1.3427734375-0.26318359375t-1.2353515625-0.72509765625t-0.90234375-1.07958984375t-0.3544921875-1.33740234375z M101.319296875,44.2353515625q0-0.98828125,0.23095703125-1.93896484375t0.39208984375-1.89599609375q0.04296875-0.2470703125,0.33837890625-0.30615234375t0.49951171875-0.05908203125q0.3544921875,0,0.5693359375,0.107421875q0.0859375,0.04296875,0.1611328125,0.0966796875t0.0751953125,0.1396484375q0,0.923828125-0.22021484375,1.8046875t-0.22021484375,1.869140625q0,0.3330078125,0.04833984375,0.62841796875t0.09130859375,0.58544921875l0.064453125,0.3115234375q0,0.0859375,0.0107421875,0.150390625t0.0322265625,0.150390625q0,0.193359375-0.27392578125,0.26318359375t-0.47802734375,0.06982421875q-0.3115234375,0-0.57470703125-0.12353515625t-0.41357421875-0.42431640625l-0.150390625-0.3115234375q-0.12890625-0.2470703125-0.12890625-0.55322265625t-0.0537109375-0.56396484375z M102.006796875,37.7685546875l0-0.2041015625q0-0.5048828125,0.25244140625-0.90234375t0.75732421875-0.3974609375q0.064453125,0,0.12353515625,0.0107421875t0.12353515625,0.0107421875q0.12890625,0.021484375,0.33837890625,0.10205078125t0.20947265625,0.25244140625l0,0.021484375q-0.04296875,0.0859375-0.0537109375,0.17724609375t-0.0537109375,0.15576171875l0.021484375-0.021484375q-0.12890625,0.3330078125-0.20947265625,0.537109375t-0.17724609375,0.32763671875t-0.24169921875,0.17724609375t-0.41357421875,0.0537109375q-0.04296875,0-0.150390625-0.0107421875t-0.23095703125-0.04296875t-0.20947265625-0.0859375t-0.0859375-0.1611328125z M105.56965820313,37.671875q0-0.150390625,0.322265625-0.2578125t0.73046875-0.17724609375t0.78955078125-0.10205078125t0.52099609375-0.0537109375q0-0.2900390625,0.021484375-0.58544921875t0.1181640625-0.5263671875t0.30615234375-0.37060546875t0.58544921875-0.1396484375q0.3115234375,0,0.47265625,0.0751953125t0.34375,0.3115234375q0.04296875,0.12890625,0.04296875,0.2470703125l0,0.35986328125t-0.021484375,0.37060546875q0.3974609375-0.04296875,0.78955078125-0.10205078125t0.78955078125-0.05908203125q0.2900390625,0,0.3974609375,0.0107421875t0.21484375,0.2578125q0.0859375,0.2470703125-0.20947265625,0.3759765625t-0.708984375,0.193359375t-0.82177734375,0.0966796875t-0.494140625,0.0322265625q-0.12890625,1.84765625-0.26318359375,3.6630859375t-0.13427734375,3.6845703125q0,0.837890625,0.0537109375,1.7294921875t0.30078125,1.6865234375q0.064453125,0.2470703125,0.21484375,0.4619140625t0.150390625,0.4619140625q0,0.150390625-0.1181640625,0.236328125t-0.28466796875,0.14501953125t-0.3330078125,0.06982421875t-0.27392578125,0.0107421875q-0.6767578125,0-1.03125-0.5048828125t-0.51025390625-1.20849609375t-0.16650390625-1.44482421875t-0.0107421875-1.203125q0-0.9453125,0.03759765625-1.93359375t0.09130859375-1.955078125t0.150390625-1.890625t0.2255859375-1.71875q-0.3759765625,0.04296875-0.73583984375,0.0966796875t-0.73583984375,0.0537109375q-0.0859375,0-0.23095703125-0.0107421875t-0.27392578125-0.0537109375t-0.22021484375-0.1181640625t-0.09130859375-0.21484375z M113.78388671875,44.93359375q0-0.751953125,0.16650390625-1.7724609375t0.56396484375-1.93359375t1.04736328125-1.55224609375t1.63818359375-0.63916015625q0.923828125,0,1.3857421875,0.53173828125t0.4619140625,1.43408203125q0,0.5908203125-0.22021484375,1.29443359375t-0.62841796875,1.33203125t-0.966796875,1.04736328125t-1.24609375,0.4189453125l-0.279296875-0.021484375q0,0.2900390625,0.0859375,0.77880859375t0.25244140625,0.97216796875t0.4296875,0.8486328125t0.63916015625,0.365234375q0.5478515625,0,1.052734375-0.4404296875t0.9560546875-0.9775390625t0.837890625-0.9775390625t0.708984375-0.4404296875q0.171875,0,0.3544921875,0.0537109375t0.2041015625,0.30078125q0,0.150390625-0.08056640625,0.2470703125t-0.14501953125,0.21484375q-0.3330078125,0.5693359375-0.72509765625,1.0849609375t-0.88623046875,0.9345703125t-1.07958984375,0.66064453125t-1.29443359375,0.24169921875q-0.923828125,0-1.5361328125-0.32763671875t-0.98828125-0.880859375t-0.54248046875-1.2783203125t-0.16650390625-1.52001953125z M115.70673828125,44.1171875l0.30078125,0.2685546875q0.21484375,0.193359375,0.4296875,0.0859375t0.38671875-0.39208984375t0.31689453125-0.70361328125t0.2578125-0.859375t0.16650390625-0.859375t0.0537109375-0.6982421875l0-0.365234375t-0.0322265625-0.38671875t-0.11279296875-0.30615234375t-0.25244140625-0.15576171875q-0.0537109375-0.0107421875-0.0966796875-0.0107421875q-0.365234375,0-0.623046875,0.4619140625q-0.279296875,0.515625-0.451171875,1.25146484375t-0.2470703125,1.50927734375t-0.0966796875,1.16015625z"/><path fill="#" d=""/></svg>
